<svg xmlns:dc="http://purl.org/dc/elements/1.1/" xmlns:cc="http://creativecommons.org/ns#" xmlns:rdf="http://www.w3.org/1999/02/22-rdf-syntax-ns#" xmlns:svg="http://www.w3.org/2000/svg" xmlns="http://www.w3.org/2000/svg" viewBox="0 0 180 180"><metadata><rdf:RDF><cc:Work><dc:format>image/svg+xml</dc:format><dc:type rdf:resource="http://purl.org/dc/dcmitype/StillImage"/><dc:title>Bottts</dc:title><dc:creator><cc:Agent><dc:title>Pablo Stanley</dc:title></cc:Agent></dc:creator><dc:source>https://bottts.com/</dc:source><cc:license rdf:resource="https://bottts.com/"/><dc:contributor><cc:Agent><dc:title>Florian Körner</dc:title></cc:Agent></dc:contributor></cc:Work></rdf:RDF></metadata><mask id="avatarsRadiusMask"><rect width="180" height="180" rx="0" ry="0" x="0" y="0" fill="#fff"/></mask><g mask="url(#avatarsRadiusMask)"><g transform="translate(0, 66)"><path fill-rule="evenodd" clip-rule="evenodd" d="M134.436 10.184C134 11.0397 134 12.1598 134 14.4V61.6C134 63.8402 134 64.9603 134.436 65.816C134.819 66.5686 135.431 67.1805 136.184 67.564C137.04 68 138.16 68 140.4 68H163.6C165.84 68 166.96 68 167.816 67.564C168.569 67.1805 169.181 66.5686 169.564 65.816C170 64.9603 170 63.8402 170 61.6V52.9944C171.35 52.9761 172.161 52.8979 172.816 52.564C173.569 52.1805 174.181 51.5686 174.564 50.816C175 49.9603 175 48.8402 175 46.6V29.4C175 27.1598 175 26.0397 174.564 25.184C174.181 24.4314 173.569 23.8195 172.816 23.436C172.161 23.1021 171.35 23.0239 170 23.0056V14.4C170 12.1598 170 11.0397 169.564 10.184C169.181 9.43139 168.569 8.81947 167.816 8.43597C166.96 8 165.84 8 163.6 8H140.4C138.16 8 137.04 8 136.184 8.43597C135.431 8.81947 134.819 9.43139 134.436 10.184ZM20.436 17.184C20 18.0397 20 19.1598 20 21.4V31H16.4C14.1598 31 13.0397 31 12.184 31.436C11.4314 31.8195 10.8195 32.4314 10.436 33.184C10 34.0397 10 35.1598 10 37.4V54.6C10 56.8402 10 57.9603 10.436 58.816C10.8195 59.5686 11.4314 60.1805 12.184 60.564C13.0397 61 14.1598 61 16.4 61H39.6C41.8402 61 42.9603 61 43.816 60.564C44.5686 60.1805 45.1805 59.5686 45.564 58.816C46 57.9603 46 56.8402 46 54.6V38.6V37.4V21.4C46 19.1598 46 18.0397 45.564 17.184C45.1805 16.4314 44.5686 15.8195 43.816 15.436C42.9603 15 41.8402 15 39.6 15H26.4C24.1598 15 23.0397 15 22.184 15.436C21.4314 15.8195 20.8195 16.4314 20.436 17.184Z" fill="#0076DE"/><mask id="sidesSquareAssymetricMask0" mask-type="alpha" maskUnits="userSpaceOnUse" x="10" y="8" width="165" height="60"><path fill-rule="evenodd" clip-rule="evenodd" d="M134.436 10.184C134 11.0397 134 12.1598 134 14.4V61.6C134 63.8402 134 64.9603 134.436 65.816C134.819 66.5686 135.431 67.1805 136.184 67.564C137.04 68 138.16 68 140.4 68H163.6C165.84 68 166.96 68 167.816 67.564C168.569 67.1805 169.181 66.5686 169.564 65.816C170 64.9603 170 63.8402 170 61.6V52.9944C171.35 52.9761 172.161 52.8979 172.816 52.564C173.569 52.1805 174.181 51.5686 174.564 50.816C175 49.9603 175 48.8402 175 46.6V29.4C175 27.1598 175 26.0397 174.564 25.184C174.181 24.4314 173.569 23.8195 172.816 23.436C172.161 23.1021 171.35 23.0239 170 23.0056V14.4C170 12.1598 170 11.0397 169.564 10.184C169.181 9.43139 168.569 8.81947 167.816 8.43597C166.96 8 165.84 8 163.6 8H140.4C138.16 8 137.04 8 136.184 8.43597C135.431 8.81947 134.819 9.43139 134.436 10.184ZM20.436 17.184C20 18.0397 20 19.1598 20 21.4V31H16.4C14.1598 31 13.0397 31 12.184 31.436C11.4314 31.8195 10.8195 32.4314 10.436 33.184C10 34.0397 10 35.1598 10 37.4V54.6C10 56.8402 10 57.9603 10.436 58.816C10.8195 59.5686 11.4314 60.1805 12.184 60.564C13.0397 61 14.1598 61 16.4 61H39.6C41.8402 61 42.9603 61 43.816 60.564C44.5686 60.1805 45.1805 59.5686 45.564 58.816C46 57.9603 46 56.8402 46 54.6V38.6V37.4V21.4C46 19.1598 46 18.0397 45.564 17.184C45.1805 16.4314 44.5686 15.8195 43.816 15.436C42.9603 15 41.8402 15 39.6 15H26.4C24.1598 15 23.0397 15 22.184 15.436C21.4314 15.8195 20.8195 16.4314 20.436 17.184Z" fill="white"/></mask><g mask="url(#sidesSquareAssymetricMask0)"><rect width="180" height="76" fill="#AB47BC"/><rect y="47" width="180" height="29" fill="black" fill-opacity="0.1"/><path fill-rule="evenodd" clip-rule="evenodd" d="M161 25C163.761 25 166 22.7614 166 20C166 17.2386 163.761 15 161 15C158.239 15 156 17.2386 156 20C156 22.7614 158.239 25 161 25Z" fill="white" fill-opacity="0.6"/><path fill-rule="evenodd" clip-rule="evenodd" d="M161 41C163.761 41 166 38.7614 166 36C166 33.2386 163.761 31 161 31C158.239 31 156 33.2386 156 36C156 38.7614 158.239 41 161 41Z" fill="white" fill-opacity="0.6"/></g></g><g transform="translate(41, 0)"><g filter="url(#topGlowingBulb02Filter0)"><path fill-rule="evenodd" clip-rule="evenodd" d="M30 33C30 21.9543 38.9543 13 50 13V13C61.0457 13 70 21.9543 70 33V44H30V33Z" fill="white" fill-opacity="0.3"/></g><path fill-rule="evenodd" clip-rule="evenodd" d="M50 36C52.2091 36 54 35.028 54 31.7143C54 28.4006 52.2091 24 50 24C47.7909 24 46 28.4006 46 31.7143C46 35.028 47.7909 36 50 36Z" fill="white" fill-opacity="0.6"/><path d="M50 14.5C49.4477 14.5 49 14.9477 49 15.5C49 16.0523 49.4477 16.5 50 16.5V14.5ZM61.6941 21.6875C62.0649 22.0968 62.6973 22.1281 63.1066 21.7573C63.5159 21.3865 63.5471 20.7541 63.1763 20.3448L61.6941 21.6875ZM65.7595 24.0473C65.5035 23.5579 64.8993 23.3686 64.4099 23.6246C63.9205 23.8806 63.7313 24.4848 63.9873 24.9742L65.7595 24.0473ZM65.4248 28.9559C65.5404 29.4959 66.0719 29.84 66.6119 29.7244C67.152 29.6088 67.4961 29.0773 67.3805 28.5373L65.4248 28.9559ZM50 16.5C54.6375 16.5 58.8065 18.4999 61.6941 21.6875L63.1763 20.3448C59.9256 16.7563 55.2256 14.5 50 14.5V16.5ZM63.9873 24.9742C64.6357 26.2139 65.1239 27.5501 65.4248 28.9559L67.3805 28.5373C67.0411 26.9518 66.4904 25.4448 65.7595 24.0473L63.9873 24.9742Z" fill="white"/><rect x="20" y="36" width="60" height="16" rx="1" fill="#AB47BC"/><defs><filter id="topGlowingBulb02Filter0" x="22" y="5" width="56" height="47" filterUnits="userSpaceOnUse" color-interpolation-filters="sRGB"><feFlood flood-opacity="0" result="BackgroundImageFix"/><feColorMatrix in="SourceAlpha" type="matrix" values="0 0 0 0 0 0 0 0 0 0 0 0 0 0 0 0 0 0 127 0"/><feOffset/><feGaussianBlur stdDeviation="4"/><feColorMatrix type="matrix" values="0 0 0 0 1 0 0 0 0 1 0 0 0 0 1 0 0 0 0.5 0"/><feBlend mode="normal" in2="BackgroundImageFix" result="effect1_dropShadow"/><feBlend mode="normal" in="SourceGraphic" in2="effect1_dropShadow" result="shape"/><feColorMatrix in="SourceAlpha" type="matrix" values="0 0 0 0 0 0 0 0 0 0 0 0 0 0 0 0 0 0 127 0" result="hardAlpha"/><feOffset/><feGaussianBlur stdDeviation="2"/><feComposite in2="hardAlpha" operator="arithmetic" k2="-1" k3="1"/><feColorMatrix type="matrix" values="0 0 0 0 1 0 0 0 0 1 0 0 0 0 1 0 0 0 0.5 0"/><feBlend mode="normal" in2="shape" result="effect2_innerShadow"/></filter></defs></g><g transform="translate(25, 44)"><path fill-rule="evenodd" clip-rule="evenodd" d="M0 102V68.8517C0 64.3169 0.77112 59.8152 2.28039 55.5389L19.7614 12.0092C22.3014 4.81263 29.1036 0 36.7353 0L93.2647 0C100.896 0 107.699 4.81263 110.239 12.0092L127.72 55.5389C129.229 59.8152 130 64.3169 130 68.8517V102C130 111.941 121.941 120 112 120H18C8.05887 120 0 111.941 0 102Z" fill="#0076DE"/><mask id="faceSquareMask0" mask-type="alpha" maskUnits="userSpaceOnUse" x="0" y="0" width="130" height="120"><path fill-rule="evenodd" clip-rule="evenodd" d="M0 102V68.8517C0 64.3169 0.77112 59.8152 2.28039 55.5389L19.7614 12.0092C22.3014 4.81263 29.1036 0 36.7353 0L93.2647 0C100.896 0 107.699 4.81263 110.239 12.0092L127.72 55.5389C129.229 59.8152 130 64.3169 130 68.8517V102C130 111.941 121.941 120 112 120H18C8.05887 120 0 111.941 0 102Z" fill="white"/></mask><g mask="url(#faceSquareMask0)"><rect x="-2" y="-2" width="134" height="124" fill="#8E24AA"/> undefined </g></g><g transform="translate(52, 124)"><rect x="28" y="10" width="6" height="14" rx="2" fill="black" fill-opacity="0.6"/><rect x="14" y="10" width="6" height="14" rx="2" fill="black" fill-opacity="0.6"/><rect x="42" y="10" width="6" height="14" rx="2" fill="black" fill-opacity="0.6"/><rect x="56" y="10" width="6" height="14" rx="2" fill="black" fill-opacity="0.6"/></g><g transform="translate(38, 76)"><rect y="11" width="104" height="34" rx="17" fill="black" fill-opacity="0.8"/><path fill-rule="evenodd" clip-rule="evenodd" d="M29 41C36.1797 41 42 35.1797 42 28C42 20.8203 36.1797 15 29 15C21.8203 15 16 20.8203 16 28C16 35.1797 21.8203 41 29 41Z" fill="#F1EEDA"/><path fill-rule="evenodd" clip-rule="evenodd" d="M75 41C82.1797 41 88 35.1797 88 28C88 20.8203 82.1797 15 75 15C67.8203 15 62 20.8203 62 28C62 35.1797 67.8203 41 75 41Z" fill="#F1EEDA"/><rect x="24" y="23" width="10" height="10" rx="2" fill="black" fill-opacity="0.8"/><rect x="70" y="23" width="10" height="10" rx="2" fill="black" fill-opacity="0.8"/></g></g></svg>