<svg xmlns:dc="http://purl.org/dc/elements/1.1/" xmlns:cc="http://creativecommons.org/ns#" xmlns:rdf="http://www.w3.org/1999/02/22-rdf-syntax-ns#" xmlns:svg="http://www.w3.org/2000/svg" xmlns="http://www.w3.org/2000/svg" viewBox="0 0 180 180"><metadata><rdf:RDF><cc:Work><dc:format>image/svg+xml</dc:format><dc:type rdf:resource="http://purl.org/dc/dcmitype/StillImage"/><dc:title>Bottts</dc:title><dc:creator><cc:Agent><dc:title>Pablo Stanley</dc:title></cc:Agent></dc:creator><dc:source>https://bottts.com/</dc:source><cc:license rdf:resource="https://bottts.com/"/><dc:contributor><cc:Agent><dc:title>Florian Körner</dc:title></cc:Agent></dc:contributor></cc:Work></rdf:RDF></metadata><mask id="avatarsRadiusMask"><rect width="180" height="180" rx="0" ry="0" x="0" y="0" fill="#fff"/></mask><g mask="url(#avatarsRadiusMask)"><g transform="translate(0, 66)"><path fill-rule="evenodd" clip-rule="evenodd" d="M13 11H11V31H12.4C10.1598 31 9.03969 31 8.18404 31.436C7.43139 31.8195 6.81947 32.4314 6.43597 33.184C6 34.0397 6 35.1598 6 37.4V38.6C6 40.8402 6 41.9603 6.43597 42.816C6.81947 43.5686 7.43139 44.1805 8.18404 44.564C9.03969 45 10.1598 45 12.4 45H18V55.6C18 57.8402 18 58.9603 18.436 59.816C18.8195 60.5686 19.4314 61.1805 20.184 61.564C21.0397 62 22.1598 62 24.4 62H47.6C49.8402 62 50.9603 62 51.816 61.564C52.5686 61.1805 53.1805 60.5686 53.564 59.816C54 58.9603 54 57.8402 54 55.6V20.4C54 18.1598 54 17.0397 53.564 16.184C53.1805 15.4314 52.5686 14.8195 51.816 14.436C50.9603 14 49.8402 14 47.6 14H24.4C22.1598 14 21.0397 14 20.184 14.436C19.4314 14.8195 18.8195 15.4314 18.436 16.184C18 17.0397 18 18.1598 18 20.4V31H13V11ZM126 34.4C126 32.1598 126 31.0397 126.436 30.184C126.819 29.4314 127.431 28.8195 128.184 28.436C129.04 28 130.16 28 132.4 28H155.6C157.84 28 158.96 28 159.816 28.436C160.569 28.8195 161.181 29.4314 161.564 30.184C162 31.0397 162 32.1598 162 34.4V45.6C162 47.8402 162 48.9603 161.564 49.816C161.181 50.5686 160.569 51.1805 159.816 51.564C158.96 52 157.84 52 155.6 52H132.4C130.16 52 129.04 52 128.184 51.564C127.431 51.1805 126.819 50.5686 126.436 49.816C126 48.9603 126 47.8402 126 45.6V34.4Z" fill="#0076DE"/><mask id="sidesAntenna01Mask0" mask-type="alpha" maskUnits="userSpaceOnUse" x="6" y="11" width="156" height="51"><path fill-rule="evenodd" clip-rule="evenodd" d="M13 11H11V31H12.4C10.1598 31 9.03969 31 8.18404 31.436C7.43139 31.8195 6.81947 32.4314 6.43597 33.184C6 34.0397 6 35.1598 6 37.4V38.6C6 40.8402 6 41.9603 6.43597 42.816C6.81947 43.5686 7.43139 44.1805 8.18404 44.564C9.03969 45 10.1598 45 12.4 45H18V55.6C18 57.8402 18 58.9603 18.436 59.816C18.8195 60.5686 19.4314 61.1805 20.184 61.564C21.0397 62 22.1598 62 24.4 62H47.6C49.8402 62 50.9603 62 51.816 61.564C52.5686 61.1805 53.1805 60.5686 53.564 59.816C54 58.9603 54 57.8402 54 55.6V20.4C54 18.1598 54 17.0397 53.564 16.184C53.1805 15.4314 52.5686 14.8195 51.816 14.436C50.9603 14 49.8402 14 47.6 14H24.4C22.1598 14 21.0397 14 20.184 14.436C19.4314 14.8195 18.8195 15.4314 18.436 16.184C18 17.0397 18 18.1598 18 20.4V31H13V11ZM126 34.4C126 32.1598 126 31.0397 126.436 30.184C126.819 29.4314 127.431 28.8195 128.184 28.436C129.04 28 130.16 28 132.4 28H155.6C157.84 28 158.96 28 159.816 28.436C160.569 28.8195 161.181 29.4314 161.564 30.184C162 31.0397 162 32.1598 162 34.4V45.6C162 47.8402 162 48.9603 161.564 49.816C161.181 50.5686 160.569 51.1805 159.816 51.564C158.96 52 157.84 52 155.6 52H132.4C130.16 52 129.04 52 128.184 51.564C127.431 51.1805 126.819 50.5686 126.436 49.816C126 48.9603 126 47.8402 126 45.6V34.4Z" fill="white"/></mask><g mask="url(#sidesAntenna01Mask0)"><rect width="180" height="76" fill="#66BB6A"/><rect y="38" width="180" height="38" fill="black" fill-opacity="0.1"/></g><rect x="11" y="11" width="2" height="20" fill="white" fill-opacity="0.4"/><path fill-rule="evenodd" clip-rule="evenodd" d="M12 12C14.2091 12 16 10.2091 16 8C16 5.79086 14.2091 4 12 4C9.79086 4 8 5.79086 8 8C8 10.2091 9.79086 12 12 12Z" fill="#FFEA8F"/><path fill-rule="evenodd" clip-rule="evenodd" d="M13 9C14.1046 9 15 8.10457 15 7C15 5.89543 14.1046 5 13 5C11.8954 5 11 5.89543 11 7C11 8.10457 11.8954 9 13 9Z" fill="white"/></g><g transform="translate(41, 0)"><path fill-rule="evenodd" clip-rule="evenodd" d="M50 13C38.9543 13 30 21.9543 30 33V36H21C20.4477 36 20 36.4477 20 37V51C20 51.5523 20.4477 52 21 52H79C79.5523 52 80 51.5523 80 51V37C80 36.4477 79.5523 36 79 36H70V33C70 21.9543 61.0457 13 50 13Z" fill="#59C4FF"/><mask id="topBulb01Mask0" mask-type="alpha" maskUnits="userSpaceOnUse" x="20" y="13" width="60" height="39"><path fill-rule="evenodd" clip-rule="evenodd" d="M50 13C38.9543 13 30 21.9543 30 33V36H21C20.4477 36 20 36.4477 20 37V51C20 51.5523 20.4477 52 21 52H79C79.5523 52 80 51.5523 80 51V37C80 36.4477 79.5523 36 79 36H70V33C70 21.9543 61.0457 13 50 13Z" fill="white"/></mask><g mask="url(#topBulb01Mask0)"><rect width="100" height="52" fill="#66BB6A"/><path fill-rule="evenodd" clip-rule="evenodd" d="M50 36C52.2091 36 54 35.028 54 31.7143C54 28.4006 52.2091 24 50 24C47.7909 24 46 28.4006 46 31.7143C46 35.028 47.7909 36 50 36Z" fill="white" fill-opacity="0.6"/><rect x="20" y="13" width="60" height="23" fill="white" fill-opacity="0.4"/><path d="M50 14.5C49.4477 14.5 49 14.9477 49 15.5C49 16.0523 49.4477 16.5 50 16.5V14.5ZM61.6941 21.6875C62.0649 22.0968 62.6973 22.1281 63.1066 21.7573C63.5159 21.3865 63.5471 20.7541 63.1763 20.3448L61.6941 21.6875ZM65.7595 24.0473C65.5035 23.5579 64.8993 23.3686 64.4099 23.6246C63.9205 23.8806 63.7313 24.4848 63.9873 24.9742L65.7595 24.0473ZM65.4248 28.9559C65.5404 29.4959 66.0719 29.84 66.6119 29.7244C67.152 29.6088 67.4961 29.0773 67.3805 28.5373L65.4248 28.9559ZM50 16.5C54.6375 16.5 58.8065 18.4999 61.6941 21.6875L63.1763 20.3448C59.9256 16.7563 55.2256 14.5 50 14.5V16.5ZM63.9873 24.9742C64.6357 26.2139 65.1239 27.5501 65.4248 28.9559L67.3805 28.5373C67.0411 26.9518 66.4904 25.4448 65.7595 24.0473L63.9873 24.9742Z" fill="white"/></g></g><g transform="translate(25, 44)"><path fill-rule="evenodd" clip-rule="evenodd" d="M0 18C0 8.05888 8.05888 0 18 0H112C121.941 0 130 8.05888 130 18V45.1483C130 49.6831 129.229 54.1848 127.72 58.4611L110.239 107.991C107.699 115.187 100.896 120 93.2647 120H36.7353C29.1036 120 22.3014 115.187 19.7614 107.991L2.28038 58.4611C0.771117 54.1848 0 49.6831 0 45.1483L0 18Z" fill="#0076DE"/><mask id="faceSquare03Mask0" mask-type="alpha" maskUnits="userSpaceOnUse" x="0" y="0" width="130" height="120"><path fill-rule="evenodd" clip-rule="evenodd" d="M0 18C0 8.05888 8.05888 0 18 0H112C121.941 0 130 8.05888 130 18V45.1483C130 49.6831 129.229 54.1848 127.72 58.4611L110.239 107.991C107.699 115.187 100.896 120 93.2647 120H36.7353C29.1036 120 22.3014 115.187 19.7614 107.991L2.28038 58.4611C0.771117 54.1848 0 49.6831 0 45.1483L0 18Z" fill="white"/></mask><g mask="url(#faceSquare03Mask0)"><rect x="-2" y="-2" width="134" height="124" fill="#43A047"/> undefined </g></g><g transform="translate(52, 124)"><path fill-rule="evenodd" clip-rule="evenodd" d="M18 10.2222C18 21.7845 24.4741 28 38 28C51.5182 28 58 21.6615 58 10.2222C58 9.49622 57.1739 8 55 8C39.2707 8 29.1917 8 21 8C18.949 8 18 9.38479 18 10.2222Z" fill="black" fill-opacity="0.8"/><mask id="mouthSmilie02Mask0" mask-type="alpha" maskUnits="userSpaceOnUse" x="18" y="8" width="40" height="20"><path fill-rule="evenodd" clip-rule="evenodd" d="M18 10.2222C18 21.7845 24.4741 28 38 28C51.5182 28 58 21.6615 58 10.2222C58 9.49622 57.1739 8 55 8C39.2707 8 29.1917 8 21 8C18.949 8 18 9.38479 18 10.2222Z" fill="white"/></mask><g mask="url(#mouthSmilie02Mask0)"><rect x="30" y="2" width="16" height="14" rx="2" fill="white"/></g></g><g transform="translate(38, 76)"><rect y="4" width="104" height="42" rx="4" fill="black" fill-opacity="0.8"/><rect x="28" y="25" width="10" height="11" rx="2" fill="#8BDDFF"/><rect x="66" y="25" width="10" height="11" rx="2" fill="#8BDDFF"/><path fill-rule="evenodd" clip-rule="evenodd" d="M21 4H29L12 46H4L21 4Z" fill="white" fill-opacity="0.4"/></g></g></svg>